<svg width="48" height="48" viewBox="0 0 48 48" fill="none" xmlns="http://www.w3.org/2000/svg">
<rect width="48" height="48" rx="15.36" fill="white"/>
<rect width="48" height="48" rx="15.36" fill="url(#paint0_linear_14920_104994)"/>
<path fill-rule="evenodd" clip-rule="evenodd" d="M33.5033 28.3455C34.2188 28.8525 34.6837 29.6408 34.7813 30.5124C34.8786 31.3837 34.599 32.2553 34.0131 32.9075C31.5783 35.6018 28.0572 37.296 24.1439 37.296C16.8058 37.296 10.848 31.3384 10.848 24.0001C10.848 16.662 16.8058 10.704 24.1439 10.704C28.0499 10.704 31.5646 12.3919 33.9981 15.0777C34.5884 15.7326 34.8701 16.6083 34.773 17.4846C34.6759 18.3605 34.2088 19.1536 33.4896 19.663C33.3929 19.7326 33.2956 19.8015 33.1983 19.8707C31.9285 20.7704 30.1873 20.5847 29.1361 19.4372C27.899 18.0842 26.1199 17.2353 24.1439 17.2353C20.4103 17.2353 17.3794 20.2663 17.3794 23.9999C17.3794 27.7336 20.4105 30.7645 24.1439 30.7645C26.1233 30.7645 27.9051 29.9124 29.1426 28.5557C30.1884 27.4117 31.9227 27.2257 33.1877 28.1218C33.2932 28.1963 33.3986 28.2711 33.5033 28.3455Z" fill="white"/>
<circle cx="24" cy="24" r="2.4" fill="white"/>
<defs>
<linearGradient id="paint0_linear_14920_104994" x1="0" y1="0" x2="48" y2="48" gradientUnits="userSpaceOnUse">
<stop stop-color="#FEAC5E"/>
<stop offset="0.5" stop-color="#C54BD3"/>
<stop offset="1" stop-color="#4BC0C8"/>
</linearGradient>
</defs>
</svg>
